<svg width="171.9561mm" height="132.73103mm" viewBox="0 0 171.9561 132.73103" xmlns="http://www.w3.org/2000/svg">
    <path d="m 1401.2697,3310.6569 -1.588,7.5391 5.998,0.3395 -2.4696,10.3229 c 0,0 10.4082,-4.3462 11.8195,-1.5617 1.4113,2.7847 -7.4088,16.1642 -11.7311,17.862 -4.3222,1.6978 -16.7592,5.3655 -16.7592,5.3655 0,0 10.8495,8.4894 6.5273,11.4779 -4.322,2.9882 -9.438,2.173 -12.437,0.9503 -2.9991,-1.2224 -10.0557,-4.9578 -10.0557,-4.9578 l -4.2163,-5.0204 c 0,0 -2.311,16.7023 -7.1624,17.9927 -4.8514,1.2903 -6.8802,-4.0755 -8.4677,-8.6258 -1.5878,-4.5503 -2.8876,-7.9799 -2.8876,-7.9799 0,0 -20.0502,11.4769 -24.3722,10.8655 -4.3222,-0.6112 -2.3084,-4.0874 0.2496,-7.0755 2.558,-2.9885 10.6035,-11.7022 10.6035,-11.7022 0,0 -20.2214,1.2851 -23.6389,-6.3841 -4.472,-10.0354 -3.1424,-13.626 -3.1424,-13.626 l 16.1969,3.5062 -8.2915,-18.4051 c 0,0 -15.8774,1.0868 -21.3459,3.328 -5.469,2.2413 -14.5544,8.286 -14.378,13.7873 0.1765,5.5012 15.5249,17.7263 22.4932,17.1829 6.9681,-0.5432 -17.6418,9.9156 -14.8192,19.3559 2.8226,9.4403 14.9952,17.1148 21.0814,19.9673 6.0865,2.8525 9.4383,3.3281 12.702,2.1058 3.2636,-1.2227 21.2577,-18.9487 21.2577,-18.9487 0,0 -6.7922,12.9037 -3.7931,17.0465 2.999,4.1432 23.3746,6.5882 39.6927,-0.068 16.3182,-6.6558 26.6384,-15.7567 27.344,-21.6653 0.7057,-5.9087 -2.1166,-9.9839 -2.1166,-9.9839 0,0 22.0516,-0.8149 28.0494,-5.1615 5.9982,-4.3465 12.6137,-8.2858 12.6137,-8.2858 l -4.9397,-3.4638 8.3793,-2.1736 c 0,0 2.823,-8.1499 -5.1154,-13.9226 -7.9386,-5.773 -23.2867,-9.9839 -30.4313,-9.2367 -7.1448,0.7469 -10.8494,-0.7472 -10.8494,-0.7472 z m 13.6043,74.2838 c -13.3263,-0.1109 -23.0817,6.7909 -22.7976,8.7194 l 0.7406,2.3477 c 0,0 -5.5849,0.7678 -7.4084,6.3624 -1.8238,5.5946 6.6392,13.5803 22.7955,14.3701 16.156,0.7898 33.3094,-4.0587 35.0475,-11.4525 1.738,-7.3935 -8.6908,-18.2094 -24.1344,-20.0742 -1.4479,-0.1749 -2.8646,-0.2614 -4.2432,-0.2729 z" fill="#5e975f" paint-order="fill markers stroke" transform="translate(-19.050055,-82.0209) translate(-1259.0732,-3205.135)"/>
    <path d="m 1364.1019,3289.0985 c -0.1359,0 -0.2736,0.01 -0.4134,0.037 -4.4744,0.875 -13.1398,16.816 -13.1398,16.816 0,0 -8.462,-14.79 -13.2917,-14.1066 -4.8297,0.6837 -4.6519,23.242 -4.6519,23.242 0,0 -14.347,-11.7027 -16.8682,-10.3901 -2.5215,1.3124 3.196,17.3628 4.2612,19.2495 1.0655,1.8867 3.2851,5.856 3.2851,5.856 0,0 -15.0217,-3.3909 -15.5189,-2.7347 -0.4971,0.6562 -0.1774,6.0978 0.8878,7.9845 1.0655,1.8868 10.121,12.742 15.9096,13.1248 5.7885,0.3826 7.7773,0.6289 7.7773,0.6289 0,0 -11.3995,9.1874 -10.2986,14.164 1.1009,4.9763 20.3484,-4.594 21.4493,-5.4142 1.1009,-0.8202 3.6934,-2.898 3.6934,-2.898 0,0 4.3681,16.5151 9.0557,16.7339 4.6877,0.2188 7.5641,-5.7696 8.2745,-7.9572 0.7102,-2.1873 1.2784,-10.1441 1.2784,-10.1441 0,0 7.1734,6.8082 11.2572,8.3396 4.0841,1.5312 13.9128,1.251 14.9428,0.6496 1.0297,-0.6016 -5.2199,-12.0861 -5.2199,-12.0861 0,0 13.4946,-3.0349 20.2066,-9.5974 6.7116,-6.5624 9.5879,-11.7032 8.8423,-12.9883 -0.7459,-1.2853 -13.7077,1.8593 -13.7077,1.8593 0,0 4.581,-9.2965 3.5512,-10.5544 -1.03,-1.2578 -6.2502,0.6289 -6.2502,0.6289 0,0 5.4336,-15.1485 1.4206,-16.4336 -4.0129,-1.2851 -13.1398,6.2068 -13.1398,6.2068 0,0 0.4617,-14.3551 -3.1962,-14.027 -3.6576,0.3281 -13.8498,7.9845 -13.8498,7.9845 0,0 -2.333,-14.0885 -6.5469,-14.1733 z m -3.8638,16.8259 c 0.2578,0 0.5238,0.048 0.7953,0.1622 2.1715,0.9178 -0.2129,2.2946 1.618,2.7864 1.8307,0.4916 2.2991,-1.2459 3.917,-0.8852 1.618,0.3606 -0.596,3.0489 1.2775,3.1802 1.8733,0.1309 3.193,-1.3118 4.4276,-2.3281 1.2348,-1.0162 0.5537,3.0819 2.342,3.8029 1.788,0.7213 3.3209,0.9835 1.9585,2.5244 -1.3626,1.5407 -3.0655,4.2943 -3.7894,4.2943 -0.7237,0 -7.1954,-0.1312 -7.1954,-0.1312 0,0 0.2979,-4.6547 -2.8102,-2.9828 -3.108,1.6719 -4.8535,5.4415 -4.8535,5.4415 l -5.4069,-7.9333 c -0.5535,-3.901 -1.1072,-4.3596 -0.2558,-4.9496 0.8515,-0.5903 4.7687,-0.4594 4.7687,-0.4594 0,0 1.4015,-2.5098 3.2066,-2.5223 z" fill="#eec8e7" paint-order="fill markers stroke" transform="translate(-19.050055,-82.0209) translate(-1259.0732,-3205.135)"/>
    <path d="m 1352.5184,3313.8559 c -0.5535,-3.901 -1.107,-4.36 -0.2556,-4.95 0.8515,-0.5903 4.7686,-0.4591 4.7686,-0.4591 0,0 1.8307,-3.2782 4.0021,-2.3603 2.1715,0.9178 -0.213,2.2947 1.6179,2.7865 1.8307,0.4916 2.299,-1.2459 3.9169,-0.8852 1.618,0.3606 -0.5961,3.0487 1.2774,3.18 1.8733,0.1309 3.1933,-1.3113 4.4279,-2.3276 1.2348,-1.0162 0.5535,3.0816 2.3418,3.8026 1.788,0.7213 3.3208,0.9835 1.9584,2.5244 -1.3626,1.5407 -3.0654,4.2945 -3.7893,4.2945 -0.7237,0 -7.1954,-0.1313 -7.1954,-0.1313 0,0 0.2982,-4.655 -2.8099,-2.9831 -3.108,1.6719 -4.8537,5.4419 -4.8537,5.4419 z" fill="#fcd671" paint-order="fill markers stroke" transform="translate(-19.050055,-82.0209) translate(-1259.0732,-3205.135)"/>
    <path d="m 1364.2301,3288.6551 c -0.1145,0.01 -0.2298,0.025 -0.3468,0.06 -3.742,1.1108 -11.2267,12.576 -11.2267,12.576 0,0 5.9642,-4.5023 9.9012,-3.7218 3.937,0.7803 7.5624,4.2917 7.5624,4.2917 0,0 -2.3415,-13.3792 -5.8901,-13.2059 z m -27.8226,4.1843 c -0.1068,0 -0.2,0.029 -0.2786,0.078 -1.6761,1.0503 -3.937,10.9548 -3.2742,12.2153 0,0 0.7406,-3.4815 5.6131,-4.6819 4.8726,-1.2006 7.7964,1.2604 7.7964,1.2604 0,0 -7.6849,-8.9432 -9.8567,-8.8718 z m 48.0658,2.1926 c -1.7983,0.089 -11.8582,8.06 -11.8582,8.06 0,0 4.1707,-2.281 8.1468,-0.5101 3.9759,1.7708 6.7432,5.8224 6.7432,5.8224 0,0 -1.5976,-12.9057 -2.884,-13.3558 -0.04,-0.014 -0.09,-0.019 -0.1478,-0.016 z m 15.0016,8.0558 c -3.2267,-0.017 -8.0914,3.774 -8.0914,3.774 l -2.417,4.8028 c 0,0 -6.4079,1.6531 -8.2858,2.144 -0.7449,-0.9434 -1.3425,-1.6939 -1.3425,-1.6939 l -7.2895,8.2837 c 0.1489,0.8495 0.4736,1.1623 -0.1555,0.2698 -3.501,-4.6027 -9.1451,5.0194 -9.4839,6.8767 4.253,2.9474 9.0873,2.4156 10.3037,0.3088 l 0.1018,7.2196 c 1.6344,1.7294 14.5108,-1.311 17.0321,-7.2324 0.91,-2.1372 0.4287,-0.9259 0.7216,-3.4252 2.7284,-1.6307 7.5195,-4.7976 7.5195,-4.7976 0,0 5.6525,-14.827 2.651,-16.2677 -0.3752,-0.1801 -0.8031,-0.2601 -1.2641,-0.2626 z m -80.7242,1.2801 c -0.2519,0.01 -0.4653,0.063 -0.631,0.1648 -2.6506,1.6208 -3.2744,7.7736 0.6237,15.7272 0,0 -1.1694,-12.0055 7.8352,-9.2743 8.4418,2.5605 -4.0493,-6.776 -7.8279,-6.6177 z m 16.4336,4.5056 c -0.4119,-0.01 -0.7236,0.1736 -0.8847,0.6145 -1.0306,2.8218 3.3786,13.8885 3.3786,13.8885 l 4.8669,-8.9064 c 0,0 -5.1365,-5.5554 -7.3608,-5.5966 z m 12.5393,6.363 c -0.4753,0 -0.8905,0.076 -1.2072,0.2397 -2.0272,1.0507 -1.5591,6.3929 -1.5591,6.3929 l -0.078,7.7133 c 0.1947,1.7108 -0.2144,4.7971 -0.2144,4.7971 0.7016,3.6918 14.0974,1.9291 13.2007,0.1281 l 0.9562,-3.1923 7.341,-11.1872 c 0,0 -0.117,-3.0611 -2.6118,-3.9315 -2.4947,-0.8705 -5.5355,4.8318 -5.5355,4.8318 0,0 -2.9626,-2.5209 -3.1962,-3.2112 -0.1974,-0.5827 -4.5291,-2.5965 -7.0957,-2.5807 z m 56.6921,4.6601 c -2.9217,0.01 -8.6666,2.9626 -8.6666,2.9626 2.027,0.8704 5.7688,1.9209 2.2215,8.1939 -3.5469,6.273 8.2255,-6.4827 8.1086,-9.9643 -0.029,-0.8704 -0.6896,-1.195 -1.6635,-1.1922 z m -79.4442,1.956 c -0.1161,0 -0.2141,0.025 -0.292,0.069 -1.6605,0.926 2.2336,14.5061 7.2151,19.3559 0,0 -2.577,-6.0847 -0.802,-8.7741 1.7754,-2.6895 6.0699,-2.8215 6.0699,-2.8215 0,0 -9.8315,-7.8909 -12.191,-7.829 z m -15.2172,5.2198 c -1.0214,0.01 -1.8377,0.2559 -2.1983,0.9013 -1.4422,2.5813 4.6615,13.0541 6.5097,14.1965 1.343,0.8301 -1.4621,-13.0171 3.6644,-12.9961 0,0 -4.9115,-2.127 -7.9758,-2.1017 z m 104.3751,0.2574 c -3.4434,-0.055 -13.3517,2.7032 -13.3517,2.7032 l -1.6764,3.4514 c 4.4048,-0.2698 6.666,5.0725 2.7678,9.3643 -3.8981,4.2921 6.5876,-1.6507 9.6671,-6.4828 3.0795,-4.8323 5.0673,-7.7139 3.6251,-8.8243 -0.1803,-0.1388 -0.54,-0.204 -1.0319,-0.2118 z m -28.2815,24.553 c 0,0 1.7933,4.8925 -1.247,6.5433 -3.0406,1.6507 -8.381,1.3204 -12.8638,0.3901 3.8981,4.712 16.6055,6.9935 20.6205,2.4014 4.0151,-4.5921 -6.5097,-9.3348 -6.5097,-9.3348 z m -56.132,0.4506 c 0,0 -5.3797,5.162 -7.0947,7.2332 -1.715,2.0709 -1.9881,6.1829 2.3389,6.3329 4.3268,0.15 18.8276,-8.9143 11.5383,-6.6032 -7.2892,2.3109 -8.3809,-4.3517 -6.7825,-6.9629 z m 19.6851,5.2224 c -0.2728,6.123 3.8593,14.4668 8.0693,14.3165 4.2098,-0.15 7.8739,-12.816 7.2114,-11.6153 -0.6628,1.2004 -3.8591,3.3316 -7.2114,2.9114 -3.3523,-0.4202 -4.3662,-2.041 -8.0693,-5.6126 z" fill="#d476c3" paint-order="fill markers stroke" transform="translate(-19.050055,-82.0209) translate(-1259.0732,-3205.135)"/>
    <path d="m 1400.5695,3418.5635 c -11.388,-2.9855 -17.5389,-8.4469 -17.5389,-15.5725 0,-4.5995 1.1305,-6.0858 5.735,-7.5405 0.9743,-0.3077 1.0911,-0.6699 0.5454,-1.6897 -0.9139,-1.708 1.0388,-3.5665 6.2574,-5.9558 7.1913,-3.2922 14.5788,-4.7319 22.3516,-4.3557 8.2261,0.3982 12.5864,1.8694 18.0636,6.0949 6.6577,5.1363 9.9513,11.0666 8.9907,16.1874 -1.0461,5.5753 -9.011,10.9059 -19.6319,13.1387 -6.9924,1.47 -18.541,1.327 -24.7729,-0.3068 z m 24.9305,-5.1987 c 6.1682,-1.3067 13.108,-4.5679 14.6147,-6.8675 2.5319,-3.8643 -0.3542,-10.8566 -6.1177,-14.8219 -5.1591,-3.5496 -10.4973,-4.9358 -19.0081,-4.9358 -7.9073,0 -11.9087,0.8443 -17.3885,3.6689 -1.6856,0.8686 -3.1751,1.9104 -3.3099,2.315 -0.147,0.4412 1.5774,0.9222 4.3096,1.2022 4.8541,0.4973 17.325,2.9203 18.3772,3.5706 0.3468,0.2142 0.6306,0.7314 0.6306,1.1492 0,0.5406 -3.654,0.6274 -12.6803,0.3014 -15.3877,-0.556 -17.0563,-0.1966 -17.0563,3.6726 0,1.5685 0.5571,3.3135 1.3996,4.3848 1.6646,2.1159 7.1516,4.8951 12.4314,6.2966 4.9805,1.322 17.698,1.3561 23.7977,0.065 z m -79.8801,-22.4849 c -7.0525,-1.1928 -10.0228,-4.4896 -9.4465,-10.4852 l 0.3218,-3.3494 -5.0209,5.4044 c -2.9583,3.1844 -6.2047,5.9383 -7.9025,6.704 -2.5916,1.1688 -3.3115,1.2118 -7.1531,0.4299 -10.0084,-2.0371 -18.2817,-5.9469 -24.7077,-11.6765 -5.9895,-5.3402 -7.7912,-12.3153 -4.7853,-18.5247 1.3498,-2.7884 7.4527,-9.1327 11.0448,-11.4816 l 1.729,-1.1306 -2.0747,-0.5189 c -1.1412,-0.2854 -4.5642,-1.6666 -7.607,-3.0692 -6.3352,-2.9203 -11.0509,-7.4169 -11.764,-11.2177 -1.3371,-7.1275 7.7464,-15.6649 20.3965,-19.1704 5.0636,-1.4032 12.4596,-1.944 12.4596,-0.9113 0,0.2868 -3.323,1.3727 -7.3847,2.413 -9.3911,2.4054 -15.2551,5.1548 -18.8114,8.8192 -6.2747,6.4656 -3.634,12.3927 7.8702,17.6649 5.2636,2.4123 13.1965,4.1798 15.4909,3.4517 0.7916,-0.2514 1.7927,-0.2386 2.2243,0.028 0.4502,0.2782 -1.2444,1.4315 -3.9701,2.7028 -11.5989,5.4098 -18.1113,13.9714 -15.7814,20.7483 1.0973,3.1923 3.5203,5.8016 9.1184,9.8197 4.6051,3.3054 16.435,8.5176 19.3317,8.5176 1.315,0 4.4095,-2.5809 12.522,-10.4442 10.9544,-10.6179 13.6725,-12.9021 14.4396,-12.135 0.2362,0.2362 -0.9133,3.3125 -2.5542,6.8363 -3.5261,7.5716 -4.256,12.0334 -2.2636,13.8365 1.8997,1.7192 7.5122,2.6017 16.369,2.5738 15.1693,-0.047 25.5491,-3.2752 35.6575,-11.0874 11.473,-8.8669 13.2981,-16.4855 5.6818,-23.7196 -2.0393,-1.9369 -2.1687,-1.9634 -5.5957,-1.1412 -1.9294,0.4628 -3.5081,0.9332 -3.5081,1.0452 0,0.1122 0.9329,1.2024 2.0734,2.4232 2.1777,2.3315 3.4368,5.7172 2.9048,7.8124 -0.5238,2.0634 -5.5353,4.1635 -9.9507,4.1699 -6.4585,0 -14.2189,-4.5123 -17.5028,-10.1988 -0.5149,-0.8917 -0.6947,-0.08 -0.7039,3.1782 -0.02,6.9565 -3.8194,13.0975 -9.094,14.6972 -3.2707,0.9917 -9.0309,-6.7956 -9.7508,-13.182 -0.1862,-1.6598 -0.5115,-3.0179 -0.7209,-3.0179 -0.209,0 -2.2691,1.224 -4.5778,2.7201 -7.2244,4.6815 -19.0541,8.4482 -21.844,6.9551 -2.9122,-1.5587 -1.1438,-6.8508 4.2681,-12.7723 l 3.3468,-3.6618 -3.0731,-0.4608 c -4.3002,-0.645 -10.9459,-4.131 -13.5675,-7.117 -4.7612,-5.4226 -6.8193,-13.1865 -4.4082,-16.6289 1.3521,-1.9303 3.6714,-1.9704 8.9509,-0.1549 2.211,0.7608 4.2589,1.3832 4.5509,1.3832 0.2917,0 -0.6625,-1.7894 -2.1207,-3.9765 -2.8548,-4.2816 -5.5422,-11.3468 -5.5422,-14.5701 0,-8.6053 5.3035,-9.0327 14.3111,-1.1529 l 3.5064,3.0672 -0.019,-6.0335 c -0.02,-8.9995 2.4599,-14.6777 6.3991,-14.6777 1.8501,0 6.6622,4.4272 11.1303,10.2396 l 1.758,2.2868 2.5344,-5.128 c 2.7268,-5.5172 7.7337,-10.8562 10.1813,-10.8562 4.2792,0 8.2796,5.2846 8.2796,10.9374 0,1.5915 0.1961,2.8936 0.4349,2.8936 0.2393,0 1.6257,-1.0757 3.081,-2.3905 3.4575,-3.1237 7.8958,-5.3522 10.1263,-5.0845 2.8811,0.346 4.6369,3.3949 4.5323,7.8703 -0.049,2.1091 0.1195,3.7226 0.3765,3.5861 7.1574,-3.8116 9.803,-4.3783 12.08,-2.5871 1.5672,1.2328 1.8717,2.009 1.8717,4.7699 0,1.8136 -0.4357,4.7457 -0.9683,6.5154 l -0.9684,3.2176 1.61,-0.404 c 2.4631,-0.6182 4.4769,0.2898 4.4693,2.015 0,0.8302 -0.7845,3.1801 -1.7353,5.2222 l -1.7284,3.7129 1.5624,-0.4409 c 5.3068,-1.4974 7.995,-1.8161 9.7357,-1.1543 2.4447,0.9294 2.3418,2.0912 -0.6367,7.1925 -3.6615,6.2713 -6.688,9.6934 -11.2918,12.7677 l -4.1033,2.7401 1.9549,1.8728 1.9549,1.8729 6.4694,-0.7702 c 3.558,-0.4236 8.0293,-1.2157 9.9362,-1.7606 8.766,-2.5038 21.1772,-8.836 19.8738,-10.1393 -0.3289,-0.3289 -4.5794,-2.0023 -9.4456,-3.7185 -10.5951,-3.7365 -11.8717,-4.3571 -10.9202,-5.3088 0.643,-0.6429 19.6417,1.4414 24.1682,2.6512 1.4536,0.3886 1.5558,0.1998 1.5558,-2.8678 0,-4.4438 -2.0104,-7.484 -7.1434,-10.8017 -6.8693,-4.4396 -18.3447,-7.4747 -28.471,-7.5295 -3.8494,-0.022 -4.5737,-0.1824 -3.5365,-0.7838 2.1835,-1.2681 18.5264,-0.2904 24.6237,1.4733 10.2235,2.9572 16.7887,7.8198 18.5657,13.7509 1.8113,6.0459 0.3804,10.471 -3.386,10.471 h -2.0354 l 1.3829,1.3833 c 0.7609,0.7605 1.3832,1.6597 1.3832,1.9979 0,2.3719 -9.5036,8.2537 -19.3036,11.9473 -5.4248,2.0443 -6.6368,2.2406 -14.0297,2.2718 -7.9254,0.033 -8.0734,0.063 -7.1977,1.4173 1.5462,2.3915 1.8958,5.2188 1.1122,8.9937 -1.9195,9.2463 -12.6934,17.9135 -29.3832,23.6381 -7.3284,2.5135 -23.9183,3.6883 -32.2307,2.2822 z m 14.4803,-23.8304 c 2.3104,-2.6313 3.5573,-6.2074 3.5632,-10.2191 v -2.5934 l -3.2849,-0.041 c -1.8067,-0.024 -4.7902,-0.2888 -6.6299,-0.591 -4.2508,-0.6989 -4.8162,0.3479 -2.1192,3.9241 2.5319,3.3573 3.5379,4.1272 6.6744,5.1071 3.0092,0.9399 3.3111,1.7676 0.8681,2.3808 -1.0878,0.273 -2.7486,-0.072 -4.495,-0.9372 -1.5234,-0.7538 -2.7697,-1.1598 -2.7697,-0.902 0,1.0275 4.3271,6.2733 5.1747,6.2733 0.4982,0 1.8546,-1.0805 3.0143,-2.4015 z m -20.0704,-10.5634 c 4.8062,-2.4296 6.1249,-3.3714 5.1867,-3.7043 -0.6921,-0.2457 -3.0357,-1.1325 -5.2079,-1.9711 -4.6829,-1.8076 -6.0998,-1.5263 -9.7961,1.9456 -2.8715,2.697 -6.6548,8.1137 -6.6548,9.5278 0,1.2271 8.4786,-1.7572 16.4721,-5.798 z m 50.3305,4.8902 c 0.7429,-0.2852 0.6686,-0.8629 -0.3707,-2.8834 -1.8584,-3.6123 -4.7639,-6.0265 -8.2812,-6.8818 -2.7144,-0.6598 -3.4178,-0.5558 -6.3739,0.9421 -1.8276,0.9261 -3.9555,1.6838 -4.7287,1.6838 -1.8091,0 -1.7741,0.4994 0.1489,2.1524 5.6215,4.8297 14.277,7.0313 19.6046,4.9869 z m -29.5662,-11.6427 c 0.3683,-0.3683 -2.3313,-9.2805 -4.8107,-15.8805 -3.1214,-8.3092 -6.9538,-12.6488 -9.3869,-10.6292 -0.8866,0.7357 -1.0199,2.1191 -0.7537,7.8278 0.3934,8.4358 2.1214,14.2698 5.1908,17.5243 2.168,2.2987 2.3763,2.3661 5.8723,1.9024 1.9934,-0.2645 3.7432,-0.5995 3.8882,-0.7448 z m 15.1489,-2.5314 c 2.7581,-1.1467 5.624,-2.8598 6.3688,-3.8066 2.6807,-3.408 5.1896,-12.7606 6.1041,-18.5222 1.2194,-7.6825 -1.2827,-4.0747 -3.0547,-2.6617 -7.2107,5.7496 -9.8773,9.6201 -14.1292,18.6297 -2.2588,4.7864 -4.1069,8.8586 -4.1069,9.0494 0,0.5841 3.5522,-0.499 8.8179,-2.6886 z m 15.0228,-0.019 c 4.5349,-1.1395 10.2998,-4.4055 14.4156,-8.1674 3.658,-3.3433 8.7687,-9.5915 8.7687,-10.7204 0,-0.5985 -4.6992,0.063 -8.5245,1.2009 -1.8394,0.5469 -3.2391,1.6449 -4.5904,3.6004 -2.5047,3.6252 -9.91,10.7054 -13.6825,13.0818 -4.4753,2.8191 -4.0633,2.9336 3.6131,1.0047 z m -46.9902,-1.0723 c -0.262,-0.6658 -0.895,-3.3811 -1.4065,-6.0341 -0.5116,-2.6533 -1.3147,-4.9524 -1.7848,-5.109 -0.4701,-0.1568 -3.0602,-2.1984 -5.7558,-4.5374 -2.6955,-2.3389 -6.1386,-5.124 -7.5821,-6.2776 -1.2214,-0.9761 -2.6867,-2.2899 -2.173,0.3713 2.007,10.3977 7.947,18.6772 15.0489,21.7638 3.127,1.3591 4.2368,1.3051 3.6533,-0.1765 z m 22.0574,-3.6307 c 0.6547,-1.7115 2.374,-5.3198 3.8209,-8.0183 2.5657,-4.7855 2.6137,-5.0071 1.9486,-8.9901 -0.375,-2.246 -0.9474,-4.3685 -1.2723,-4.7165 -0.8192,-0.8775 -5.7583,4.6722 -8.0519,9.0476 l -1.8732,3.5738 1.146,4.7247 c 0.6303,2.5985 1.3366,5.6254 1.5694,6.7263 0.5018,2.3734 1.1066,1.8501 2.7125,-2.3475 z m -36.6004,0.2009 c -1.3677,-1.7912 -3.3191,-5.0706 -4.3367,-7.2871 -1.4078,-3.0674 -2.2671,-4.1108 -3.5957,-4.3665 -0.9604,-0.1843 -4.2178,-1.0985 -7.2389,-2.0305 -3.021,-0.9319 -5.6258,-1.5616 -5.7882,-1.399 -0.7627,0.7625 0.8359,5.45 2.8795,8.4441 3.798,5.5647 11.3822,9.7273 17.9418,9.8477 l 2.6251,0.049 z m 72.4269,-17.5157 c 1.418,-2.4117 2.4221,-4.5403 2.232,-4.7305 -0.1902,-0.1902 -2.7505,0.8268 -5.6898,2.26 l -5.3437,2.6058 -1.1341,5.6508 c -0.6239,3.1077 -1.3489,6.273 -1.6115,7.0336 -0.8681,2.5162 8.9197,-8.3504 11.5471,-12.8197 z m -59.3537,-2.6513 c 0.075,-5.0014 0.023,-5.1549 -2.6453,-8.1256 -1.4965,-1.6654 -3.1702,-3.0277 -3.7193,-3.0277 -1.7579,0 -0.6146,6.6859 2.2923,13.4067 2.4165,5.5868 2.719,5.9953 3.3276,4.4949 0.3682,-0.9075 0.7032,-3.9445 0.7447,-6.7483 z m 20.7088,0.1569 c 2.0748,-2.4574 2.2328,-3.2049 0.91,-4.3026 -0.7234,-0.6003 -1.4132,-0.09 -3.1549,2.3357 -1.2261,1.7071 -1.7015,3.0686 -2.6649,3.1041 -0.6654,0.024 -2.0871,-1.7323 -4.1053,-3.8497 -2.9441,-3.0886 -4.0364,-3.8063 -5.5261,-3.6307 -1.3437,0.1588 -2.1064,0.8348 -2.7615,2.4483 l -0.2022,1.9584 1.264,-0.1228 c 3.1643,-0.3075 7.4415,1.9915 9.9404,6.0114 l 2.1278,3.4229 1.1684,-2.6004 c 0.6427,-1.43 1.9947,-3.5787 3.0043,-4.7746 z m 19.7621,-3.358 c 0.072,-1.0456 -2.599,-5.1865 -3.3474,-5.1865 -0.3605,0 -1.7847,1.3781 -3.1649,3.0623 -2.4249,2.9595 -2.4814,3.1545 -1.6856,5.8111 l 0.8235,2.7489 3.663,-2.872 c 2.0146,-1.5798 3.6847,-3.1833 3.7114,-3.5638 z m -59.2263,1.038 c 0.4644,2e-4 2.8338,0.9415 5.2649,2.0916 2.4312,1.1501 4.5197,1.9921 4.6408,1.8709 0.1216,-0.1216 -0.444,-2.024 -1.2562,-4.2281 -1.1818,-3.2087 -2.3591,-4.7884 -5.9037,-7.9223 -6.7191,-5.941 -8.8348,-6.8435 -9.5319,-4.0664 -0.5373,2.1404 0.7555,7.589 2.9749,12.5385 l 1.8332,4.0885 0.5666,-2.1866 c 0.3117,-1.2027 0.9469,-2.1865 1.4114,-2.1861 z m 40.2335,-5.5329 c 0.9019,0 2.0499,0.6882 2.6332,1.5786 0.7593,1.1585 1.7596,1.6074 3.7587,1.6872 2.3166,0.093 2.8979,-0.1862 3.8858,-1.8582 1.4829,-2.5101 1.4604,-2.7909 -0.2211,-2.7909 -1.0877,0 -1.3831,-0.461 -1.3831,-2.1592 0,-1.8987 -0.1334,-2.0489 -1.1037,-1.2434 -0.963,0.7994 -1.0733,0.7091 -0.8645,-0.709 0.5491,-3.7284 4.7344,-3.3011 4.7344,0.4834 0,1.6025 0.1881,1.704 2.4667,1.3343 1.3567,-0.2201 3.2148,-0.058 4.1288,0.357 2.7432,1.2499 3.4802,-0.055 3.6769,-6.5048 0.1275,-4.1758 -0.1019,-6.1092 -0.8394,-7.1121 -1.0112,-1.3726 -1.0242,-1.3724 -4.0135,0.086 -1.6495,0.8051 -4.7023,2.7476 -6.7839,4.3164 -2.0819,1.5687 -3.989,2.8524 -4.2384,2.8524 -0.5904,0 -1.6852,-2.9471 -2.672,-7.1929 -1.0495,-4.5153 -2.5713,-7.3298 -3.9635,-7.3298 -1.8221,0 -6.5611,5.4739 -9.3726,10.8256 -2.9189,5.5564 -3.0632,6.1002 -1.4585,5.4842 0.6242,-0.2395 1.8691,0.045 2.7662,0.6334 1.3952,0.9143 1.6314,0.9237 1.6314,0.066 0,-0.5517 0.8113,-1.6412 1.8029,-2.421 2.0798,-1.6362 4.421,-0.9473 4.421,1.3011 0,1.706 -1.1887,2.4219 -2.38,1.4331 -0.7223,-0.5994 -1.2293,-0.4101 -2.2173,0.8284 -0.8664,1.086 -1.8962,1.5553 -3.1824,1.4506 -2.8547,-0.2327 -2.5461,2.5874 0.6914,6.3231 l 2.5934,2.9924 1.952,-2.3563 c 1.1917,-1.4384 2.5748,-2.3563 3.5511,-2.3563 z m 3.1412,-4.5125 c 0,-0.9025 -0.3951,-1.0708 -1.729,-0.736 -1.226,0.3077 -1.7288,0.1529 -1.7288,-0.5318 0,-1.4536 1.7968,-2.653 3.5927,-2.3984 1.2482,0.1764 1.5939,0.6633 1.5939,2.2429 0,1.1093 -0.3889,2.1466 -0.8645,2.3051 -0.4754,0.1588 -0.8643,-0.2383 -0.8643,-0.8818 z m 25.5931,4.8271 c 0.4696,-2.4893 0.6913,-4.6886 0.4927,-4.8874 -0.5579,-0.5577 -7.432,3.1231 -7.8456,4.201 -0.6837,1.7818 0.9268,3.675 2.8187,3.3136 1.1891,-0.2274 1.8813,0.022 2.1732,0.7827 0.8109,2.1134 1.509,1.1052 2.361,-3.4099 z m 5.5944,0 c 1.7413,-5.617 2.3062,-9.7316 1.4118,-10.2845 -0.4001,-0.2472 -1.8758,0.03 -3.2792,0.6168 -2.4327,1.0164 -2.4974,1.1263 -1.3839,2.3566 1.5637,1.7278 2.0545,5.3022 1.2265,8.9319 -1.0304,4.5174 0.5023,3.2906 2.0248,-1.6208 z m -50.7914,-2.2189 c 1.9025,-0.2689 2.2157,-0.6169 2.4631,-2.7362 0.2133,-1.8267 -0.036,-2.6233 -1.004,-3.217 -0.7081,-0.434 -3.3031,-3.3263 -5.7666,-6.4274 -2.4637,-3.1011 -4.9548,-5.821 -5.5363,-6.044 -0.7402,-0.2841 -1.3636,0.3287 -2.0809,2.0456 -0.9498,2.2729 -2.5865,9.4379 -2.1876,9.5759 2.7133,0.9385 7.429,4.1676 8.4747,5.803 0.9093,1.4218 1.7386,2.0165 2.4204,1.7357 0.5706,-0.2351 2.0183,-0.566 3.2172,-0.7356 z" transform="translate(-19.050055,-82.0209) translate(-1259.0732,-3205.135)"/>
</svg>
